# xmcd
#
# Track frame offsets:
#  150
#  16051
#  45362
#  60954
#  79576
#  98529
#  108387
#  129295
#  140255
#  152194
#  167164
#  177327
#  192053
#  206339
#  231975
#  253057
#  274592
#  293476
#  309834
#  324869
#
# Disc length: 4505 seconds
#
# Revision: 0
# Processed by: cddbd v1.5.2PL0 Copyright (c) Steve Scherf et al.
# Submitted via: Collectorz.com_Music_Collector 6.11
#
DISCID=f3119714
DTITLE=Alexis Korner - A New Generation Of Blues
DYEAR=2008
DGENRE=Blues
TTITLE0=Mary, Open The Door
TTITLE1=Little Bitty Gal Blues
TTITLE2=Baby Don't You Love Me
TTITLE3=Go Down Sunshine
TTITLE4=The Same For You
TTITLE5=I'm Tore Down
TTITLE6=In The Evening
TTITLE7=Somethin' You Got
TTITLE8=New Worried Blues
TTITLE9=What's That Sound I Hear?
TTITLE10=A Flower
TTITLE11=Louisiana Blues
TTITLE12=Corrina Corrina
TTITLE13=The Love You Save
TTITLE14=Operator
TTITLE15=Steal Away
TTITLE16=Go Down Sunshine
TTITLE17=Stump Blues
TTITLE18=Sweet Home Chicago
TTITLE19=Just The Blues
EXTD=
EXTT0=
EXTT1=
EXTT2=
EXTT3=
EXTT4=
EXTT5=
EXTT6=
EXTT7=
EXTT8=
EXTT9=
EXTT10=
EXTT11=
EXTT12=
EXTT13=
EXTT14=
EXTT15=
EXTT16=
EXTT17=
EXTT18=
EXTT19=
PLAYORDER=
